<svg xmlns="http://www.w3.org/2000/svg" width="1219" height="855" viewBox="0 0 1219 855" font-family="Helvetica,Arial,sans-serif">
  <defs>
    <marker id="arr" markerWidth="10" markerHeight="10" refX="8" refY="4.5" orient="auto">
      <path d="M0,0 L9,4.5 L0,9 z" fill="#1a1a1a"/>
    </marker>
    <marker id="arrc" markerWidth="10" markerHeight="10" refX="8" refY="4.5" orient="auto">
      <path d="M0,0 L9,4.5 L0,9 z" fill="#7a2d2d"/>
    </marker>
  </defs>
  <style>
    .wire{stroke:#1a1a1a;stroke-width:1.7;fill:none;stroke-linecap:round;stroke-linejoin:round}
    .dev{stroke:#1a1a1a;stroke-width:1.7;fill:none;stroke-linecap:round;stroke-linejoin:round}
    .rail{stroke:#1a1a1a;stroke-width:2.4;fill:none}
    .ic{fill:#fffbdd;stroke:#1a1a1a;stroke-width:2}
    .port{fill:#fbf3e6;stroke:#9a6a1a;stroke-width:1.3}
    .dot{fill:#1a1a1a}
    .lbl{font-size:12.5px;fill:#111}
    .val{font-size:11px;fill:#555}
    .pin{font-size:10px;fill:#1a1a1a}
    .pol{font-size:12px;fill:#111}
    .sm{font-size:10.5px;fill:#555}
    .ic-ttl{font-size:13px;font-weight:bold;fill:#111}
    .port-lbl{font-size:11.5px;fill:#7a2d2d;font-weight:bold}
    .rail-lbl{font-size:11px;fill:#1a5e1a;font-weight:bold}
    .ttl{font-size:15px;font-weight:bold;fill:#111}
    .note{font-size:10.5px;fill:#555}
    .act{fill:#fff;stroke:#1a1a1a;stroke-width:1.5}
    .blk{fill:#eef3fb;stroke:#33507a;stroke-width:1.5}
    .blk-ttl{font-size:13px;font-weight:bold;fill:#1b2c4a}
    .flow{stroke:#1a1a1a;stroke-width:1.8;fill:none;marker-end:url(#arr)}
    .flowc{stroke:#7a2d2d;stroke-width:1.8;fill:none;stroke-dasharray:6 4;marker-end:url(#arrc)}
    .flbl{font-size:11px;fill:#1a5e1a;font-weight:bold}
  </style>
  <rect x="0" y="0" width="1219" height="855" fill="#fff"/>
  <text x="20" y="26" class="ttl">Symbol kit — IEC/European style, labels bottom</text>
  <g transform="translate(16,20)">
  <path d="M125,570 L165,570" class="wire"/>
  <path d="M260,520 L260,480" fill="none" stroke="#e8412f" stroke-width="2.0" stroke-linecap="round" stroke-linejoin="round"/>
  <path d="M260,680 L260,720" fill="none" stroke="#2166ac" stroke-width="2.0" stroke-linecap="round" stroke-linejoin="round"/>
  <path d="M355,600 L395,600" class="wire"/>
  <path d="M455,600 L485,600" class="wire"/>
  <path d="M485,660 L485,700" fill="none" stroke="#2166ac" stroke-width="2.0" stroke-linecap="round" stroke-linejoin="round"/>
<g transform="translate(120,90)">
<path d="M-30,0 L-18,0 M18,0 L30,0" class="dev"/><rect x="-18" y="-9" width="36" height="18" class="dev" fill="#fff"/>
</g>
<text x="120" y="112" class="lbl" text-anchor="middle">res</text>
<text x="120" y="126" class="val" text-anchor="middle">10 kΩ</text>
<g transform="translate(260,90)">
<path d="M-30,0 L-5,0 M30,0 L5,0" class="dev"/><line x1="-5" y1="-16" x2="-5" y2="16" class="dev"/><line x1="5" y1="-16" x2="5" y2="16" class="dev"/>
</g>
<text x="260" y="118" class="lbl" text-anchor="middle">cap</text>
<text x="260" y="132" class="val" text-anchor="middle">100 nF</text>
<g transform="translate(400,90)">
<path d="M-30,0 L-5,0 M30,0 L9,0" class="dev"/><line x1="-5" y1="-16" x2="-5" y2="16" class="dev"/><path d="M5,-16 Q14,0 5,16" class="dev"/><text x="-9" y="-19" class="pol">+</text>
</g>
<text x="400" y="118" class="lbl" text-anchor="middle">cap_pol</text>
<text x="400" y="132" class="val" text-anchor="middle">10 µF</text>
<g transform="translate(540,90)">
<path d="M-30,0 L-20,0 M20,0 L30,0" class="dev"/><rect x="-20" y="-6" width="40" height="12" fill="#1a1a1a"/>
</g>
<text x="540" y="111" class="lbl" text-anchor="middle">inductor</text>
<text x="540" y="125" class="val" text-anchor="middle">10 µH</text>
<g transform="translate(680,90)">
<path d="M-30,0 L-18,0 M18,0 L30,0" class="dev"/><rect x="-18" y="-9" width="36" height="18" class="dev" fill="#fff"/><path d="M0,-30 L0,-14" class="dev"/><polygon points="0,-10 -4,-17 4,-17" fill="#222"/>
</g>
<text x="680" y="112" class="lbl" text-anchor="middle">pot</text>
<text x="680" y="126" class="val" text-anchor="middle">10 kΩ</text>
<g transform="translate(820,90)">
<path d="M-30,0 L-7,0 M30,0 L7,0" class="dev"/><line x1="-7" y1="-18" x2="-7" y2="18" class="dev"/><line x1="7" y1="-18" x2="7" y2="18" class="dev"/><rect x="-14" y="-13" width="28" height="26" class="dev" fill="#fff"/>
</g>
<text x="820" y="123" class="lbl" text-anchor="middle">piezo</text>
<text x="820" y="137" class="val" text-anchor="middle">4 kHz</text>
<g transform="translate(960,90)">
<path d="M-30,0 L-10,0 M30,0 L10,0" class="dev"/><line x1="-10" y1="-14" x2="-10" y2="14" class="dev"/><line x1="10" y1="-14" x2="10" y2="14" class="dev"/><rect x="-6" y="-18" width="12" height="36" class="dev" fill="#fff"/>
</g>
<text x="960" y="124" class="lbl" text-anchor="middle">xtal</text>
<text x="960" y="138" class="val" text-anchor="middle">16 MHz</text>
<g transform="translate(120,210)">
<path d="M-30,0 L-7,0 M30,0 L7,0" class="dev"/><polygon points="-7,-12 -7,12 7,0" class="dev" fill="#222"/><line x1="7" y1="-14" x2="7" y2="14" class="dev"/>
</g>
<text x="120" y="238" class="lbl" text-anchor="middle">diode</text>
<text x="120" y="252" class="val" text-anchor="middle">1N4148</text>
<g transform="translate(260,210)">
<path d="M-30,0 L-7,0 M30,0 L7,0" class="dev"/><polygon points="-7,-12 -7,12 7,0" class="dev" fill="#222"/><path d="M2,-14 L2,-9 M7,-14 L7,14 M12,14 L12,9" class="dev"/>
</g>
<text x="260" y="238" class="lbl" text-anchor="middle">schottky</text>
<text x="260" y="252" class="val" text-anchor="middle">BAT54</text>
<g transform="translate(400,210)">
<path d="M-30,0 L-7,0 M30,0 L7,0" class="dev"/><polygon points="-7,-12 -7,12 7,0" class="dev" fill="#222"/><path d="M2,-19 L7,-14 L7,14 L12,19" class="dev"/>
</g>
<text x="400" y="239" class="lbl" text-anchor="middle">zener</text>
<text x="400" y="253" class="val" text-anchor="middle">5.1 V</text>
<g transform="translate(540,210)">
<path d="M-30,0 L-7,0 M30,0 L7,0" class="dev"/><polygon points="-7,-12 -7,12 7,0" class="dev" fill="#222"/><line x1="7" y1="-14" x2="7" y2="14" class="dev"/><path d="M5,-16 L13,-24 M10,-24 L13,-24 L13,-21" class="dev"/><path d="M-3,-16 L5,-24 M2,-24 L5,-24 L5,-21" class="dev"/>
</g>
<text x="540" y="238" class="lbl" text-anchor="middle">led</text>
<text x="540" y="252" class="val" text-anchor="middle">red</text>
<g transform="translate(680,210)">
<path d="M-30,0 L-14,0 M30,0 L14,0" class="dev"/><circle cx="-14" cy="0" r="2.5" class="dev" fill="#fff"/><circle cx="14" cy="0" r="2.5" class="dev" fill="#fff"/><path d="M-12,-1 L18,-14" class="dev"/>
</g>
<text x="680" y="230" class="lbl" text-anchor="middle">switch</text>
<text x="680" y="244" class="val" text-anchor="middle">SPST</text>
<g transform="translate(820,210)">
<path d="M-30,0 L-10,0 M30,0 L10,0" class="dev"/><circle cx="-10" cy="0" r="2.5" class="dev" fill="#fff"/><circle cx="10" cy="0" r="2.5" class="dev" fill="#fff"/><line x1="-14" y1="-8" x2="14" y2="-8" class="dev"/><line x1="0" y1="-8" x2="0" y2="-17" class="dev"/>
</g>
<text x="820" y="230" class="lbl" text-anchor="middle">button</text>
<text x="820" y="244" class="val" text-anchor="middle">6 mm</text>
<g transform="translate(960,210)">
<path d="M-30,0 L-5,0 M30,0 L5,0" class="dev"/><line x1="-5" y1="-16" x2="-5" y2="16" class="dev"/><line x1="5" y1="-7" x2="5" y2="7" class="rail"/><text x="-19" y="-9" class="pol">+</text><text x="9" y="-9" class="pol">−</text>
</g>
<text x="960" y="240" class="lbl" text-anchor="middle">battery</text>
<text x="960" y="254" class="val" text-anchor="middle">9 V</text>
<g transform="translate(140,340)">
<circle cx="0" cy="0" r="18" class="dev" fill="#fff"/>
<path d="M-40,0 L-7.2,0" class="dev"/>
<line x1="-7.2" y1="-11.16" x2="-7.2" y2="11.16" class="dev"/>
<path d="M-7.2,-5.02 L8.1,-11.16 L20,-11.16 L20,-40" class="dev"/>
<path d="M-7.2,5.02 L8.1,11.16 L20,11.16 L20,40" class="dev"/>
<polygon points="4.73,9.81 -2.2,10.8 0.41,4.3" fill="#222"/>
</g>
<text x="140" y="395" class="lbl" text-anchor="middle">npn</text>
<text x="140" y="409" class="val" text-anchor="middle">S8050</text>
<g transform="translate(300,340)">
<circle cx="0" cy="0" r="18" class="dev" fill="#fff"/>
<path d="M-40,0 L-7.2,0" class="dev"/>
<line x1="-7.2" y1="-11.16" x2="-7.2" y2="11.16" class="dev"/>
<path d="M-7.2,-5.02 L8.1,-11.16 L20,-11.16 L20,-40" class="dev"/>
<path d="M-7.2,5.02 L8.1,11.16 L20,11.16 L20,40" class="dev"/>
<polygon points="-3.83,6.37 3.1,5.38 0.49,11.88" fill="#222"/>
</g>
<text x="300" y="395" class="lbl" text-anchor="middle">pnp</text>
<text x="300" y="409" class="val" text-anchor="middle">S8550</text>
<g transform="translate(460,340)">
<path d="M-40,0 L-9,0" class="dev"/>
<line x1="-9" y1="-13" x2="-9" y2="13" class="dev"/>
<line x1="-3" y1="-16" x2="-3" y2="16" class="dev"/>
<path d="M-3,-11 L20,-11 L20,-40" class="dev"/>
<path d="M-3,11 L20,11 L20,40" class="dev"/>
<polygon points="2.1,11 8.16,7.5 8.16,14.5" fill="#222"/>
</g>
<text x="460" y="395" class="lbl" text-anchor="middle">nmos</text>
<text x="460" y="409" class="val" text-anchor="middle">AO3400</text>
<g transform="translate(620,340)">
<path d="M-40,0 L-9,0" class="dev"/>
<line x1="-9" y1="-13" x2="-9" y2="13" class="dev"/>
<line x1="-3" y1="-16" x2="-3" y2="16" class="dev"/>
<path d="M-3,-11 L20,-11 L20,-40" class="dev"/>
<path d="M-3,11 L20,11 L20,40" class="dev"/>
<polygon points="11.9,11 5.84,14.5 5.84,7.5" fill="#222"/>
</g>
<text x="620" y="395" class="lbl" text-anchor="middle">pmos</text>
<text x="620" y="409" class="val" text-anchor="middle">AO3401</text>
<g transform="translate(810,340)">
<polygon points="-30,-30 -30,30 30,0" class="dev" fill="#fff"/><path d="M-50,10 L-30,10 M-50,-10 L-30,-10 M30,0 L50,0" class="dev"/><path d="M0,-30 L0,-15 M0,30 L0,15" class="dev"/><text x="-24" y="-6" class="pol">−</text><text x="-24" y="15" class="pol">+</text>
</g>
<text x="810" y="383" class="lbl" text-anchor="middle">opamp</text>
<text x="810" y="397" class="val" text-anchor="middle">LM358</text>
<g transform="translate(960,340)">
<path d="M0,0 L0,-5" class="dev"/><circle cx="0" cy="-9" r="4" class="dev" fill="#fff"/>
</g>
<text x="960" y="322" class="lbl" text-anchor="middle">TP1</text>
<g transform="translate(1100,340)">
<path d="M0,0 L30,0" class="dev"/><path d="M-70,-13 L-6,-13 L4,0 L-6,13 L-70,13 Z" class="port"/>
</g>
<text x="1036" y="344" class="port-lbl">GPIO</text>
<g transform="translate(1090,440)">
<path d="M0,0 L0,-12" class="dev"/><line x1="-13" y1="-12" x2="13" y2="-12" class="rail"/>
</g>
<text x="1090" y="422" class="rail-lbl" text-anchor="middle">+5 V</text>
<g transform="translate(1150,420)">
<path d="M0,0 L0,10" class="dev"/><line x1="-12" y1="10" x2="12" y2="10" class="dev"/><line x1="-8" y1="15" x2="8" y2="15" class="dev"/><line x1="-4" y1="20" x2="4" y2="20" class="dev"/>
</g>

<g transform="translate(260,600)">
<rect x="-75" y="-60" width="150" height="120" class="ic"/>
<text x="0" y="-5" class="ic-ttl" text-anchor="middle">NE555</text>
<text x="0" y="13" class="sm" text-anchor="middle">timer</text>
<line x1="-75" y1="-30" x2="-95" y2="-30" class="dev"/>
<text x="-69" y="-34" class="pin" text-anchor="start">TRIG</text>
<line x1="-75" y1="0" x2="-95" y2="0" class="dev"/>
<text x="-69" y="-4" class="pin" text-anchor="start">THR</text>
<line x1="-75" y1="30" x2="-95" y2="30" class="dev"/>
<text x="-69" y="26" class="pin" text-anchor="start">CTRL</text>
<line x1="75" y1="-30" x2="95" y2="-30" class="dev"/>
<text x="69" y="-34" class="pin" text-anchor="end">DIS</text>
<line x1="75" y1="0" x2="95" y2="0" class="dev"/>
<text x="69" y="-4" class="pin" text-anchor="end">OUT</text>
<line x1="75" y1="30" x2="95" y2="30" class="dev"/>
<text x="69" y="26" class="pin" text-anchor="end">RST</text>
<line x1="0" y1="-60" x2="0" y2="-80" class="dev"/>
<text x="0" y="-47" class="pin" text-anchor="middle">VCC</text>
<line x1="0" y1="60" x2="0" y2="80" class="dev"/>
<text x="0" y="53" class="pin" text-anchor="middle">GNDP</text>
</g>

<g transform="translate(95,570)">
<path d="M0,0 L30,0" class="dev"/><path d="M-70,-13 L-6,-13 L4,0 L-6,13 L-70,13 Z" class="port"/>
</g>
<text x="31" y="574" class="port-lbl">GPIO</text>
<g transform="translate(260,480)">
<path d="M0,0 L0,-12" class="dev"/><line x1="-13" y1="-12" x2="13" y2="-12" class="rail"/>
</g>
<text x="260" y="462" class="rail-lbl" text-anchor="middle">+5 V</text>
<g transform="translate(260,720)">
<path d="M0,0 L0,10" class="dev"/><line x1="-12" y1="10" x2="12" y2="10" class="dev"/><line x1="-8" y1="15" x2="8" y2="15" class="dev"/><line x1="-4" y1="20" x2="4" y2="20" class="dev"/>
</g>

<g transform="translate(425,600)">
<path d="M-30,0 L-18,0 M18,0 L30,0" class="dev"/><rect x="-18" y="-9" width="36" height="18" class="dev" fill="#fff"/>
</g>
<text x="425" y="584" class="lbl" text-anchor="middle">R</text>
<text x="425" y="622" class="val" text-anchor="middle">10 kΩ</text>
<g transform="translate(485,630) rotate(90)">
<path d="M-30,0 L-5,0 M30,0 L5,0" class="dev"/><line x1="-5" y1="-16" x2="-5" y2="16" class="dev"/><line x1="5" y1="-16" x2="5" y2="16" class="dev"/>
</g>
<text x="507" y="627" class="lbl" text-anchor="start">C</text>
<text x="507" y="641" class="val" text-anchor="start">100 nF</text>
<g transform="translate(485,700)">
<path d="M0,0 L0,10" class="dev"/><line x1="-12" y1="10" x2="12" y2="10" class="dev"/><line x1="-8" y1="15" x2="8" y2="15" class="dev"/><line x1="-4" y1="20" x2="4" y2="20" class="dev"/>
</g>

  </g>
  <rect x="16" y="801" width="1187" height="40" rx="6" fill="#fbfbf2" stroke="#ddd"/>
  <text x="26" y="815" class="note">Same gallery as ../symbols_kit.sch, but every part that accepts it carries "lpos down": reference and value stack below the symbol. testpoint/port/rail/gnd, the NE555 and the rc block's inline parts place</text>
  <text x="26" y="829" class="note">their own labels and are unchanged.</text>
</svg>